<svg xmlns="http://www.w3.org/2000/svg" xmlns:xlink="http://www.w3.org/1999/xlink" width="1080" zoomAndPan="magnify" viewBox="0 0 810 404.99999" height="540" preserveAspectRatio="xMidYMid meet" version="1.0"><defs><g/><clipPath id="09960b4201"><path d="M 562.210938 120.535156 L 665.46875 120.535156 L 665.46875 166.859375 L 562.210938 166.859375 Z M 562.210938 120.535156 " clip-rule="nonzero"/></clipPath><clipPath id="57b1029faa"><path d="M 562.222656 120.535156 L 665.457031 120.535156 L 665.457031 166.847656 L 562.222656 166.847656 Z M 562.222656 120.535156 " clip-rule="nonzero"/></clipPath><clipPath id="17b75ccca2"><path d="M 364.5 19.773438 L 467.753906 19.773438 L 467.753906 66.097656 L 364.5 66.097656 Z M 364.5 19.773438 " clip-rule="nonzero"/></clipPath><clipPath id="9dc22ac0d9"><path d="M 364.511719 19.773438 L 467.742188 19.773438 L 467.742188 66.085938 L 364.511719 66.085938 Z M 364.511719 19.773438 " clip-rule="nonzero"/></clipPath><clipPath id="5bb006f267"><path d="M 173.09375 120.535156 L 276.351562 120.535156 L 276.351562 166.859375 L 173.09375 166.859375 Z M 173.09375 120.535156 " clip-rule="nonzero"/></clipPath><clipPath id="dfeb65352b"><path d="M 173.105469 120.535156 L 276.335938 120.535156 L 276.335938 166.847656 L 173.105469 166.847656 Z M 173.105469 120.535156 " clip-rule="nonzero"/></clipPath><clipPath id="49237948cb"><path d="M 40.5 229.582031 L 143.753906 229.582031 L 143.753906 275.902344 L 40.5 275.902344 Z M 40.5 229.582031 " clip-rule="nonzero"/></clipPath><clipPath id="021dc5d0e6"><path d="M 40.511719 229.582031 L 143.742188 229.582031 L 143.742188 275.894531 L 40.511719 275.894531 Z M 40.511719 229.582031 " clip-rule="nonzero"/></clipPath><clipPath id="a434b04e79"><path d="M 305.601562 229.582031 L 408.855469 229.582031 L 408.855469 275.902344 L 305.601562 275.902344 Z M 305.601562 229.582031 " clip-rule="nonzero"/></clipPath><clipPath id="ea0616049e"><path d="M 305.609375 229.582031 L 408.84375 229.582031 L 408.84375 275.894531 L 305.609375 275.894531 Z M 305.609375 229.582031 " clip-rule="nonzero"/></clipPath><clipPath id="c2f9fb5a3c"><path d="M 173.09375 229.582031 L 276.351562 229.582031 L 276.351562 275.902344 L 173.09375 275.902344 Z M 173.09375 229.582031 " clip-rule="nonzero"/></clipPath><clipPath id="2a7eef7758"><path d="M 173.105469 229.582031 L 276.335938 229.582031 L 276.335938 275.894531 L 173.105469 275.894531 Z M 173.105469 229.582031 " clip-rule="nonzero"/></clipPath><clipPath id="e88d16a944"><path d="M 628.695312 229.582031 L 731.949219 229.582031 L 731.949219 275.902344 L 628.695312 275.902344 Z M 628.695312 229.582031 " clip-rule="nonzero"/></clipPath><clipPath id="50c1efd6a3"><path d="M 628.703125 229.582031 L 731.9375 229.582031 L 731.9375 275.894531 L 628.703125 275.894531 Z M 628.703125 229.582031 " clip-rule="nonzero"/></clipPath><clipPath id="85aa700ca5"><path d="M 496.1875 229.582031 L 599.445312 229.582031 L 599.445312 275.902344 L 496.1875 275.902344 Z M 496.1875 229.582031 " clip-rule="nonzero"/></clipPath><clipPath id="5517706e8a"><path d="M 496.199219 229.582031 L 599.433594 229.582031 L 599.433594 275.894531 L 496.199219 275.894531 Z M 496.199219 229.582031 " clip-rule="nonzero"/></clipPath><clipPath id="1f9021cbbc"><path d="M 562.441406 338.902344 L 665.695312 338.902344 L 665.695312 385.226562 L 562.441406 385.226562 Z M 562.441406 338.902344 " clip-rule="nonzero"/></clipPath><clipPath id="f4cf14a65c"><path d="M 562.453125 338.902344 L 665.683594 338.902344 L 665.683594 385.214844 L 562.453125 385.214844 Z M 562.453125 338.902344 " clip-rule="nonzero"/></clipPath><clipPath id="7656ca9726"><path d="M 429.9375 338.902344 L 533.191406 338.902344 L 533.191406 385.226562 L 429.9375 385.226562 Z M 429.9375 338.902344 " clip-rule="nonzero"/></clipPath><clipPath id="874278983b"><path d="M 429.945312 338.902344 L 533.179688 338.902344 L 533.179688 385.214844 L 429.945312 385.214844 Z M 429.945312 338.902344 " clip-rule="nonzero"/></clipPath></defs><g clip-path="url(#09960b4201)"><path fill="#ffffff" d="M 562.210938 120.535156 L 665.535156 120.535156 L 665.535156 166.859375 L 562.210938 166.859375 Z M 562.210938 120.535156 " fill-opacity="1" fill-rule="nonzero"/></g><g clip-path="url(#57b1029faa)"><path stroke-linecap="butt" transform="matrix(0.75, 0, 0, 0.75, 562.222941, 120.536733)" fill="none" stroke-linejoin="miter" d="M -0.000379256 -0.00210207 L 137.645463 -0.00210207 L 137.645463 61.747902 L -0.000379256 61.747902 Z M -0.000379256 -0.00210207 " stroke="#000000" stroke-width="4" stroke-opacity="1" stroke-miterlimit="4"/></g><g fill="#000000" fill-opacity="1"><g transform="translate(584.478076, 148.286731)"><g><path d="M 5.625 -2.484375 L 5.625 -1.5 L 0.609375 -3.765625 L 0.609375 -4.53125 L 5.625 -6.796875 L 5.625 -5.8125 L 1.90625 -4.21875 L 1.90625 -4.09375 Z M 5.625 -2.484375 "/></g></g><g transform="translate(590.870654, 148.286731)"><g><path d="M 2.953125 0.125 C 2.546875 0.125 2.164062 0.0703125 1.8125 -0.03125 C 1.46875 -0.144531 1.175781 -0.296875 0.9375 -0.484375 C 0.707031 -0.671875 0.539062 -0.878906 0.4375 -1.109375 L 1 -1.703125 L 1.125 -1.703125 C 1.332031 -1.378906 1.582031 -1.132812 1.875 -0.96875 C 2.175781 -0.8125 2.535156 -0.734375 2.953125 -0.734375 C 3.421875 -0.734375 3.78125 -0.828125 4.03125 -1.015625 C 4.28125 -1.203125 4.40625 -1.457031 4.40625 -1.78125 C 4.40625 -2.039062 4.328125 -2.253906 4.171875 -2.421875 C 4.023438 -2.585938 3.785156 -2.710938 3.453125 -2.796875 L 2.359375 -3.0625 C 1.773438 -3.195312 1.347656 -3.414062 1.078125 -3.71875 C 0.816406 -4.03125 0.6875 -4.410156 0.6875 -4.859375 C 0.6875 -5.210938 0.773438 -5.519531 0.953125 -5.78125 C 1.128906 -6.039062 1.382812 -6.238281 1.71875 -6.375 C 2.0625 -6.519531 2.46875 -6.59375 2.9375 -6.59375 C 3.53125 -6.59375 4 -6.507812 4.34375 -6.34375 C 4.6875 -6.175781 4.953125 -5.941406 5.140625 -5.640625 L 4.59375 -5.109375 L 4.484375 -5.109375 C 4.273438 -5.347656 4.046875 -5.519531 3.796875 -5.625 C 3.554688 -5.738281 3.269531 -5.796875 2.9375 -5.796875 C 2.507812 -5.796875 2.179688 -5.71875 1.953125 -5.5625 C 1.734375 -5.40625 1.625 -5.1875 1.625 -4.90625 C 1.625 -4.632812 1.703125 -4.421875 1.859375 -4.265625 C 2.015625 -4.109375 2.296875 -3.976562 2.703125 -3.875 L 3.765625 -3.625 C 4.328125 -3.488281 4.734375 -3.265625 4.984375 -2.953125 C 5.234375 -2.648438 5.359375 -2.265625 5.359375 -1.796875 C 5.359375 -1.421875 5.269531 -1.085938 5.09375 -0.796875 C 4.914062 -0.503906 4.644531 -0.273438 4.28125 -0.109375 C 3.914062 0.046875 3.472656 0.125 2.953125 0.125 Z M 2.953125 0.125 "/></g></g><g transform="translate(596.847216, 148.286731)"><g><path d="M 6.15625 -3.015625 L 1.71875 -3.015625 C 1.75 -2.222656 1.9375 -1.644531 2.28125 -1.28125 C 2.632812 -0.914062 3.113281 -0.734375 3.71875 -0.734375 C 4.175781 -0.734375 4.546875 -0.8125 4.828125 -0.96875 C 5.109375 -1.132812 5.332031 -1.394531 5.5 -1.75 L 5.625 -1.75 L 6.234375 -1.390625 C 6.046875 -0.921875 5.742188 -0.550781 5.328125 -0.28125 C 4.921875 -0.0078125 4.382812 0.125 3.71875 0.125 C 3.09375 0.125 2.554688 0.00390625 2.109375 -0.234375 C 1.660156 -0.484375 1.3125 -0.859375 1.0625 -1.359375 C 0.820312 -1.859375 0.703125 -2.484375 0.703125 -3.234375 C 0.703125 -3.960938 0.832031 -4.578125 1.09375 -5.078125 C 1.351562 -5.585938 1.703125 -5.96875 2.140625 -6.21875 C 2.585938 -6.46875 3.09375 -6.59375 3.65625 -6.59375 C 4.488281 -6.59375 5.132812 -6.359375 5.59375 -5.890625 C 6.0625 -5.421875 6.300781 -4.726562 6.3125 -3.8125 C 6.3125 -3.445312 6.300781 -3.203125 6.28125 -3.078125 Z M 5.359375 -3.8125 C 5.347656 -4.5 5.195312 -5 4.90625 -5.3125 C 4.613281 -5.625 4.195312 -5.78125 3.65625 -5.78125 C 3.09375 -5.78125 2.648438 -5.617188 2.328125 -5.296875 C 2.003906 -4.984375 1.804688 -4.488281 1.734375 -3.8125 Z M 5.359375 -3.8125 "/></g></g><g transform="translate(603.737841, 148.286731)"><g><path d="M 4.375 -1.03125 L 4.671875 -0.34375 C 4.523438 -0.1875 4.328125 -0.0703125 4.078125 0 C 3.828125 0.0820312 3.554688 0.125 3.265625 0.125 C 2.035156 0.125 1.421875 -0.5 1.421875 -1.75 L 1.421875 -5.6875 L 0.296875 -5.6875 L 0.296875 -6.46875 L 1.421875 -6.46875 L 1.421875 -7.828125 L 2.375 -8 L 2.375 -6.46875 L 4.453125 -6.46875 L 4.453125 -5.6875 L 2.375 -5.6875 L 2.375 -1.84375 C 2.375 -1.101562 2.695312 -0.734375 3.34375 -0.734375 C 3.695312 -0.734375 4 -0.832031 4.25 -1.03125 Z M 4.375 -1.03125 "/></g></g><g transform="translate(608.659715, 148.286731)"><g><path d="M 4.375 -1.03125 L 4.671875 -0.34375 C 4.523438 -0.1875 4.328125 -0.0703125 4.078125 0 C 3.828125 0.0820312 3.554688 0.125 3.265625 0.125 C 2.035156 0.125 1.421875 -0.5 1.421875 -1.75 L 1.421875 -5.6875 L 0.296875 -5.6875 L 0.296875 -6.46875 L 1.421875 -6.46875 L 1.421875 -7.828125 L 2.375 -8 L 2.375 -6.46875 L 4.453125 -6.46875 L 4.453125 -5.6875 L 2.375 -5.6875 L 2.375 -1.84375 C 2.375 -1.101562 2.695312 -0.734375 3.34375 -0.734375 C 3.695312 -0.734375 4 -0.832031 4.25 -1.03125 Z M 4.375 -1.03125 "/></g></g><g transform="translate(613.58159, 148.286731)"><g><path d="M 1.609375 -7.71875 C 1.398438 -7.71875 1.234375 -7.78125 1.109375 -7.90625 C 0.984375 -8.03125 0.921875 -8.191406 0.921875 -8.390625 C 0.921875 -8.578125 0.984375 -8.734375 1.109375 -8.859375 C 1.234375 -8.992188 1.398438 -9.0625 1.609375 -9.0625 C 1.804688 -9.0625 1.96875 -8.992188 2.09375 -8.859375 C 2.226562 -8.734375 2.296875 -8.578125 2.296875 -8.390625 C 2.296875 -8.191406 2.226562 -8.03125 2.09375 -7.90625 C 1.96875 -7.78125 1.804688 -7.71875 1.609375 -7.71875 Z M 1.125 0 L 1.125 -6.46875 L 2.078125 -6.46875 L 2.078125 0 Z M 1.125 0 "/></g></g><g transform="translate(616.786668, 148.286731)"><g><path d="M 1.125 0 L 1.125 -6.46875 L 2.03125 -6.46875 L 2.03125 -5.453125 L 2.15625 -5.421875 C 2.375 -5.796875 2.648438 -6.082031 2.984375 -6.28125 C 3.316406 -6.488281 3.722656 -6.59375 4.203125 -6.59375 C 4.984375 -6.59375 5.546875 -6.390625 5.890625 -5.984375 C 6.242188 -5.585938 6.421875 -4.976562 6.421875 -4.15625 L 6.421875 0 L 5.46875 0 L 5.46875 -4.140625 C 5.46875 -4.523438 5.414062 -4.835938 5.3125 -5.078125 C 5.207031 -5.316406 5.050781 -5.488281 4.84375 -5.59375 C 4.632812 -5.695312 4.363281 -5.75 4.03125 -5.75 C 3.445312 -5.75 2.972656 -5.554688 2.609375 -5.171875 C 2.253906 -4.785156 2.078125 -4.164062 2.078125 -3.3125 L 2.078125 0 Z M 1.125 0 "/></g></g><g transform="translate(624.228074, 148.286731)"><g><path d="M 3.328125 2.75 C 2.304688 2.75 1.5625 2.578125 1.09375 2.234375 C 0.625 1.890625 0.390625 1.4375 0.390625 0.875 C 0.390625 0.507812 0.5 0.21875 0.71875 0 C 0.9375 -0.207031 1.253906 -0.359375 1.671875 -0.453125 L 1.671875 -0.578125 C 1.472656 -0.691406 1.320312 -0.820312 1.21875 -0.96875 C 1.125 -1.125 1.078125 -1.304688 1.078125 -1.515625 C 1.078125 -1.765625 1.15625 -1.96875 1.3125 -2.125 C 1.46875 -2.28125 1.703125 -2.398438 2.015625 -2.484375 L 2.015625 -2.609375 C 1.316406 -2.984375 0.96875 -3.585938 0.96875 -4.421875 C 0.96875 -4.835938 1.0625 -5.207031 1.25 -5.53125 C 1.445312 -5.863281 1.722656 -6.125 2.078125 -6.3125 C 2.429688 -6.5 2.84375 -6.59375 3.3125 -6.59375 C 3.851562 -6.59375 4.304688 -6.472656 4.671875 -6.234375 C 4.804688 -6.378906 4.910156 -6.539062 4.984375 -6.71875 C 5.054688 -6.894531 5.097656 -7.09375 5.109375 -7.3125 L 5.234375 -7.390625 L 6.03125 -7.203125 C 5.988281 -6.867188 5.882812 -6.585938 5.71875 -6.359375 C 5.5625 -6.140625 5.34375 -5.953125 5.0625 -5.796875 L 5.0625 -5.671875 C 5.269531 -5.515625 5.421875 -5.320312 5.515625 -5.09375 C 5.617188 -4.875 5.671875 -4.617188 5.671875 -4.328125 C 5.671875 -3.921875 5.570312 -3.554688 5.375 -3.234375 C 5.175781 -2.910156 4.898438 -2.65625 4.546875 -2.46875 C 4.191406 -2.28125 3.78125 -2.1875 3.3125 -2.1875 C 3.257812 -2.1875 3.164062 -2.191406 3.03125 -2.203125 C 2.875 -2.210938 2.753906 -2.21875 2.671875 -2.21875 C 2.472656 -2.21875 2.3125 -2.164062 2.1875 -2.0625 C 2.070312 -1.957031 2.015625 -1.820312 2.015625 -1.65625 C 2.015625 -1.445312 2.078125 -1.296875 2.203125 -1.203125 C 2.335938 -1.109375 2.554688 -1.054688 2.859375 -1.046875 L 4.390625 -0.984375 C 5.046875 -0.960938 5.53125 -0.8125 5.84375 -0.53125 C 6.164062 -0.25 6.328125 0.148438 6.328125 0.671875 C 6.328125 1.054688 6.222656 1.40625 6.015625 1.71875 C 5.804688 2.03125 5.476562 2.28125 5.03125 2.46875 C 4.582031 2.65625 4.015625 2.75 3.328125 2.75 Z M 3.3125 -3.015625 C 3.769531 -3.015625 4.125 -3.132812 4.375 -3.375 C 4.625 -3.613281 4.75 -3.945312 4.75 -4.375 C 4.75 -4.820312 4.625 -5.164062 4.375 -5.40625 C 4.132812 -5.644531 3.78125 -5.765625 3.3125 -5.765625 C 2.851562 -5.765625 2.503906 -5.644531 2.265625 -5.40625 C 2.023438 -5.164062 1.90625 -4.820312 1.90625 -4.375 C 1.90625 -3.9375 2.023438 -3.597656 2.265625 -3.359375 C 2.503906 -3.128906 2.851562 -3.015625 3.3125 -3.015625 Z M 3.328125 1.921875 C 3.804688 1.921875 4.195312 1.867188 4.5 1.765625 C 4.800781 1.660156 5.015625 1.519531 5.140625 1.34375 C 5.273438 1.164062 5.34375 0.972656 5.34375 0.765625 C 5.34375 0.566406 5.304688 0.410156 5.234375 0.296875 C 5.171875 0.179688 5.054688 0.09375 4.890625 0.03125 C 4.734375 -0.0195312 4.515625 -0.0546875 4.234375 -0.078125 L 2.796875 -0.140625 L 2.578125 -0.140625 C 1.773438 -0.128906 1.375 0.179688 1.375 0.796875 C 1.375 1.546875 2.023438 1.921875 3.328125 1.921875 Z M 3.328125 1.921875 "/></g></g><g transform="translate(630.849167, 148.286731)"><g><path d="M 2.953125 0.125 C 2.546875 0.125 2.164062 0.0703125 1.8125 -0.03125 C 1.46875 -0.144531 1.175781 -0.296875 0.9375 -0.484375 C 0.707031 -0.671875 0.539062 -0.878906 0.4375 -1.109375 L 1 -1.703125 L 1.125 -1.703125 C 1.332031 -1.378906 1.582031 -1.132812 1.875 -0.96875 C 2.175781 -0.8125 2.535156 -0.734375 2.953125 -0.734375 C 3.421875 -0.734375 3.78125 -0.828125 4.03125 -1.015625 C 4.28125 -1.203125 4.40625 -1.457031 4.40625 -1.78125 C 4.40625 -2.039062 4.328125 -2.253906 4.171875 -2.421875 C 4.023438 -2.585938 3.785156 -2.710938 3.453125 -2.796875 L 2.359375 -3.0625 C 1.773438 -3.195312 1.347656 -3.414062 1.078125 -3.71875 C 0.816406 -4.03125 0.6875 -4.410156 0.6875 -4.859375 C 0.6875 -5.210938 0.773438 -5.519531 0.953125 -5.78125 C 1.128906 -6.039062 1.382812 -6.238281 1.71875 -6.375 C 2.0625 -6.519531 2.46875 -6.59375 2.9375 -6.59375 C 3.53125 -6.59375 4 -6.507812 4.34375 -6.34375 C 4.6875 -6.175781 4.953125 -5.941406 5.140625 -5.640625 L 4.59375 -5.109375 L 4.484375 -5.109375 C 4.273438 -5.347656 4.046875 -5.519531 3.796875 -5.625 C 3.554688 -5.738281 3.269531 -5.796875 2.9375 -5.796875 C 2.507812 -5.796875 2.179688 -5.71875 1.953125 -5.5625 C 1.734375 -5.40625 1.625 -5.1875 1.625 -4.90625 C 1.625 -4.632812 1.703125 -4.421875 1.859375 -4.265625 C 2.015625 -4.109375 2.296875 -3.976562 2.703125 -3.875 L 3.765625 -3.625 C 4.328125 -3.488281 4.734375 -3.265625 4.984375 -2.953125 C 5.234375 -2.648438 5.359375 -2.265625 5.359375 -1.796875 C 5.359375 -1.421875 5.269531 -1.085938 5.09375 -0.796875 C 4.914062 -0.503906 4.644531 -0.273438 4.28125 -0.109375 C 3.914062 0.046875 3.472656 0.125 2.953125 0.125 Z M 2.953125 0.125 "/></g></g><g transform="translate(636.825729, 148.286731)"><g><path d="M 5.765625 -3.765625 L 0.75 -1.5 L 0.75 -2.484375 L 4.484375 -4.09375 L 4.484375 -4.21875 L 0.75 -5.8125 L 0.75 -6.796875 L 5.765625 -4.53125 Z M 5.765625 -3.765625 "/></g></g></g><g clip-path="url(#17b75ccca2)"><path fill="#ffffff" d="M 364.5 19.773438 L 467.820312 19.773438 L 467.820312 66.097656 L 364.5 66.097656 Z M 364.5 19.773438 " fill-opacity="1" fill-rule="nonzero"/></g><g clip-path="url(#9dc22ac0d9)"><path stroke-linecap="butt" transform="matrix(0.75, 0, 0, 0.75, 364.510503, 19.773163)" fill="none" stroke-linejoin="miter" d="M 0.00162152 0.000366203 L 137.642256 0.000366203 L 137.642256 61.75037 L 0.00162152 61.75037 Z M 0.00162152 0.000366203 " stroke="#000000" stroke-width="4" stroke-opacity="1" stroke-miterlimit="4"/></g><g fill="#000000" fill-opacity="1"><g transform="translate(402.246077, 47.523161)"><g><path d="M 5.625 -2.484375 L 5.625 -1.5 L 0.609375 -3.765625 L 0.609375 -4.53125 L 5.625 -6.796875 L 5.625 -5.8125 L 1.90625 -4.21875 L 1.90625 -4.09375 Z M 5.625 -2.484375 "/></g></g><g transform="translate(408.638655, 47.523161)"><g><path d="M 4.375 -1.03125 L 4.671875 -0.34375 C 4.523438 -0.1875 4.328125 -0.0703125 4.078125 0 C 3.828125 0.0820312 3.554688 0.125 3.265625 0.125 C 2.035156 0.125 1.421875 -0.5 1.421875 -1.75 L 1.421875 -5.6875 L 0.296875 -5.6875 L 0.296875 -6.46875 L 1.421875 -6.46875 L 1.421875 -7.828125 L 2.375 -8 L 2.375 -6.46875 L 4.453125 -6.46875 L 4.453125 -5.6875 L 2.375 -5.6875 L 2.375 -1.84375 C 2.375 -1.101562 2.695312 -0.734375 3.34375 -0.734375 C 3.695312 -0.734375 4 -0.832031 4.25 -1.03125 Z M 4.375 -1.03125 "/></g></g><g transform="translate(413.560529, 47.523161)"><g><path d="M 4.09375 0 L 2.78125 0 L 0.3125 -6.46875 L 1.34375 -6.46875 L 3.375 -1.09375 L 3.515625 -1.09375 L 5.53125 -6.46875 L 6.546875 -6.46875 Z M 4.09375 0 "/></g></g><g transform="translate(420.410138, 47.523161)"><g><path d="M 1.609375 -7.71875 C 1.398438 -7.71875 1.234375 -7.78125 1.109375 -7.90625 C 0.984375 -8.03125 0.921875 -8.191406 0.921875 -8.390625 C 0.921875 -8.578125 0.984375 -8.734375 1.109375 -8.859375 C 1.234375 -8.992188 1.398438 -9.0625 1.609375 -9.0625 C 1.804688 -9.0625 1.96875 -8.992188 2.09375 -8.859375 C 2.226562 -8.734375 2.296875 -8.578125 2.296875 -8.390625 C 2.296875 -8.191406 2.226562 -8.03125 2.09375 -7.90625 C 1.96875 -7.78125 1.804688 -7.71875 1.609375 -7.71875 Z M 1.125 0 L 1.125 -6.46875 L 2.078125 -6.46875 L 2.078125 0 Z M 1.125 0 "/></g></g><g transform="translate(423.615216, 47.523161)"><g><path d="M 5.765625 -3.765625 L 0.75 -1.5 L 0.75 -2.484375 L 4.484375 -4.09375 L 4.484375 -4.21875 L 0.75 -5.8125 L 0.75 -6.796875 L 5.765625 -4.53125 Z M 5.765625 -3.765625 "/></g></g></g><g clip-path="url(#5bb006f267)"><path fill="#ffffff" d="M 173.09375 120.535156 L 276.414062 120.535156 L 276.414062 166.859375 L 173.09375 166.859375 Z M 173.09375 120.535156 " fill-opacity="1" fill-rule="nonzero"/></g><g clip-path="url(#dfeb65352b)"><path stroke-linecap="butt" transform="matrix(0.75, 0, 0, 0.75, 173.104746, 120.536733)" fill="none" stroke-linejoin="miter" d="M 0.000964049 -0.00210207 L 137.641598 -0.00210207 L 137.641598 61.747902 L 0.000964049 61.747902 Z M 0.000964049 -0.00210207 " stroke="#000000" stroke-width="4" stroke-opacity="1" stroke-miterlimit="4"/></g><g fill="#000000" fill-opacity="1"><g transform="translate(197.434083, 148.286731)"><g><path d="M 5.625 -2.484375 L 5.625 -1.5 L 0.609375 -3.765625 L 0.609375 -4.53125 L 5.625 -6.796875 L 5.625 -5.8125 L 1.90625 -4.21875 L 1.90625 -4.09375 Z M 5.625 -2.484375 "/></g></g><g transform="translate(203.826661, 148.286731)"><g><path d="M 1.125 2.625 L 1.125 -6.46875 L 2.078125 -6.46875 L 2.078125 -5.5 L 2.203125 -5.46875 C 2.679688 -6.21875 3.382812 -6.59375 4.3125 -6.59375 C 4.851562 -6.59375 5.320312 -6.46875 5.71875 -6.21875 C 6.125 -5.96875 6.4375 -5.59375 6.65625 -5.09375 C 6.882812 -4.59375 7 -3.972656 7 -3.234375 C 7 -2.492188 6.878906 -1.875 6.640625 -1.375 C 6.410156 -0.875 6.085938 -0.5 5.671875 -0.25 C 5.265625 0 4.789062 0.125 4.25 0.125 C 3.8125 0.125 3.421875 0.0507812 3.078125 -0.09375 C 2.742188 -0.25 2.453125 -0.503906 2.203125 -0.859375 L 2.078125 -0.828125 L 2.078125 2.625 Z M 4.03125 -0.734375 C 5.34375 -0.734375 6 -1.566406 6 -3.234375 C 6 -4.898438 5.34375 -5.734375 4.03125 -5.734375 C 3.65625 -5.734375 3.316406 -5.644531 3.015625 -5.46875 C 2.722656 -5.289062 2.492188 -5.015625 2.328125 -4.640625 C 2.160156 -4.265625 2.078125 -3.796875 2.078125 -3.234375 C 2.078125 -2.660156 2.160156 -2.1875 2.328125 -1.8125 C 2.492188 -1.445312 2.722656 -1.175781 3.015625 -1 C 3.316406 -0.820312 3.65625 -0.734375 4.03125 -0.734375 Z M 4.03125 -0.734375 "/></g></g><g transform="translate(211.537598, 148.286731)"><g><path d="M 1.125 0 L 1.125 -6.46875 L 2.03125 -6.46875 L 2.03125 -5.453125 L 2.15625 -5.421875 C 2.457031 -6.148438 3.023438 -6.515625 3.859375 -6.515625 C 4.296875 -6.515625 4.625 -6.4375 4.84375 -6.28125 L 4.59375 -5.46875 L 4.484375 -5.453125 C 4.242188 -5.566406 3.976562 -5.625 3.6875 -5.625 C 3.164062 -5.625 2.765625 -5.429688 2.484375 -5.046875 C 2.210938 -4.660156 2.078125 -4.035156 2.078125 -3.171875 L 2.078125 0 Z M 1.125 0 "/></g></g><g transform="translate(216.529785, 148.286731)"><g><path d="M 3.703125 0.125 C 3.097656 0.125 2.566406 -0.00390625 2.109375 -0.265625 C 1.660156 -0.523438 1.3125 -0.90625 1.0625 -1.40625 C 0.820312 -1.90625 0.703125 -2.515625 0.703125 -3.234375 C 0.703125 -3.941406 0.820312 -4.546875 1.0625 -5.046875 C 1.3125 -5.554688 1.660156 -5.941406 2.109375 -6.203125 C 2.566406 -6.460938 3.097656 -6.59375 3.703125 -6.59375 C 4.316406 -6.59375 4.847656 -6.460938 5.296875 -6.203125 C 5.753906 -5.941406 6.101562 -5.554688 6.34375 -5.046875 C 6.582031 -4.546875 6.703125 -3.941406 6.703125 -3.234375 C 6.703125 -2.515625 6.582031 -1.90625 6.34375 -1.40625 C 6.101562 -0.90625 5.753906 -0.523438 5.296875 -0.265625 C 4.847656 -0.00390625 4.316406 0.125 3.703125 0.125 Z M 3.703125 -0.734375 C 4.347656 -0.734375 4.84375 -0.9375 5.1875 -1.34375 C 5.53125 -1.75 5.703125 -2.378906 5.703125 -3.234375 C 5.703125 -4.085938 5.53125 -4.71875 5.1875 -5.125 C 4.84375 -5.53125 4.347656 -5.734375 3.703125 -5.734375 C 3.066406 -5.734375 2.578125 -5.523438 2.234375 -5.109375 C 1.890625 -4.703125 1.71875 -4.078125 1.71875 -3.234375 C 1.71875 -2.378906 1.890625 -1.75 2.234375 -1.34375 C 2.578125 -0.9375 3.066406 -0.734375 3.703125 -0.734375 Z M 3.703125 -0.734375 "/></g></g><g transform="translate(223.947753, 148.286731)"><g><path d="M 1.609375 -7.71875 C 1.398438 -7.71875 1.234375 -7.78125 1.109375 -7.90625 C 0.984375 -8.03125 0.921875 -8.191406 0.921875 -8.390625 C 0.921875 -8.578125 0.984375 -8.734375 1.109375 -8.859375 C 1.234375 -8.992188 1.398438 -9.0625 1.609375 -9.0625 C 1.804688 -9.0625 1.96875 -8.992188 2.09375 -8.859375 C 2.226562 -8.734375 2.296875 -8.578125 2.296875 -8.390625 C 2.296875 -8.191406 2.226562 -8.03125 2.09375 -7.90625 C 1.96875 -7.78125 1.804688 -7.71875 1.609375 -7.71875 Z M 0.3125 2.75 C 0.113281 2.75 -0.0625 2.734375 -0.21875 2.703125 C -0.375 2.671875 -0.523438 2.628906 -0.671875 2.578125 L -0.53125 1.828125 L -0.421875 1.796875 C -0.222656 1.867188 -0.0195312 1.90625 0.1875 1.90625 C 0.488281 1.90625 0.71875 1.804688 0.875 1.609375 C 1.039062 1.410156 1.125 1.125 1.125 0.75 L 1.125 -6.46875 L 2.078125 -6.46875 L 2.078125 0.703125 C 2.078125 1.359375 1.921875 1.863281 1.609375 2.21875 C 1.304688 2.570312 0.875 2.75 0.3125 2.75 Z M 0.3125 2.75 "/></g></g><g transform="translate(227.152831, 148.286731)"><g><path d="M 6.15625 -3.015625 L 1.71875 -3.015625 C 1.75 -2.222656 1.9375 -1.644531 2.28125 -1.28125 C 2.632812 -0.914062 3.113281 -0.734375 3.71875 -0.734375 C 4.175781 -0.734375 4.546875 -0.8125 4.828125 -0.96875 C 5.109375 -1.132812 5.332031 -1.394531 5.5 -1.75 L 5.625 -1.75 L 6.234375 -1.390625 C 6.046875 -0.921875 5.742188 -0.550781 5.328125 -0.28125 C 4.921875 -0.0078125 4.382812 0.125 3.71875 0.125 C 3.09375 0.125 2.554688 0.00390625 2.109375 -0.234375 C 1.660156 -0.484375 1.3125 -0.859375 1.0625 -1.359375 C 0.820312 -1.859375 0.703125 -2.484375 0.703125 -3.234375 C 0.703125 -3.960938 0.832031 -4.578125 1.09375 -5.078125 C 1.351562 -5.585938 1.703125 -5.96875 2.140625 -6.21875 C 2.585938 -6.46875 3.09375 -6.59375 3.65625 -6.59375 C 4.488281 -6.59375 5.132812 -6.359375 5.59375 -5.890625 C 6.0625 -5.421875 6.300781 -4.726562 6.3125 -3.8125 C 6.3125 -3.445312 6.300781 -3.203125 6.28125 -3.078125 Z M 5.359375 -3.8125 C 5.347656 -4.5 5.195312 -5 4.90625 -5.3125 C 4.613281 -5.625 4.195312 -5.78125 3.65625 -5.78125 C 3.09375 -5.78125 2.648438 -5.617188 2.328125 -5.296875 C 2.003906 -4.984375 1.804688 -4.488281 1.734375 -3.8125 Z M 5.359375 -3.8125 "/></g></g><g transform="translate(234.043456, 148.286731)"><g><path d="M 3.703125 0.125 C 3.140625 0.125 2.628906 -0.00390625 2.171875 -0.265625 C 1.722656 -0.523438 1.363281 -0.90625 1.09375 -1.40625 C 0.832031 -1.914062 0.703125 -2.523438 0.703125 -3.234375 C 0.703125 -3.941406 0.832031 -4.546875 1.09375 -5.046875 C 1.363281 -5.554688 1.722656 -5.941406 2.171875 -6.203125 C 2.628906 -6.460938 3.140625 -6.59375 3.703125 -6.59375 C 4.390625 -6.59375 4.9375 -6.460938 5.34375 -6.203125 C 5.75 -5.941406 6.039062 -5.597656 6.21875 -5.171875 L 5.5625 -4.703125 L 5.453125 -4.703125 C 5.273438 -5.054688 5.046875 -5.316406 4.765625 -5.484375 C 4.492188 -5.648438 4.140625 -5.734375 3.703125 -5.734375 C 3.304688 -5.734375 2.957031 -5.640625 2.65625 -5.453125 C 2.351562 -5.265625 2.117188 -4.984375 1.953125 -4.609375 C 1.796875 -4.234375 1.71875 -3.773438 1.71875 -3.234375 C 1.71875 -2.691406 1.800781 -2.234375 1.96875 -1.859375 C 2.132812 -1.484375 2.363281 -1.203125 2.65625 -1.015625 C 2.957031 -0.828125 3.304688 -0.734375 3.703125 -0.734375 C 4.160156 -0.734375 4.535156 -0.832031 4.828125 -1.03125 C 5.117188 -1.238281 5.347656 -1.5625 5.515625 -2 L 5.640625 -2 L 6.265625 -1.625 C 6.097656 -1.082031 5.796875 -0.65625 5.359375 -0.34375 C 4.929688 -0.03125 4.378906 0.125 3.703125 0.125 Z M 3.703125 0.125 "/></g></g><g transform="translate(240.705565, 148.286731)"><g><path d="M 4.375 -1.03125 L 4.671875 -0.34375 C 4.523438 -0.1875 4.328125 -0.0703125 4.078125 0 C 3.828125 0.0820312 3.554688 0.125 3.265625 0.125 C 2.035156 0.125 1.421875 -0.5 1.421875 -1.75 L 1.421875 -5.6875 L 0.296875 -5.6875 L 0.296875 -6.46875 L 1.421875 -6.46875 L 1.421875 -7.828125 L 2.375 -8 L 2.375 -6.46875 L 4.453125 -6.46875 L 4.453125 -5.6875 L 2.375 -5.6875 L 2.375 -1.84375 C 2.375 -1.101562 2.695312 -0.734375 3.34375 -0.734375 C 3.695312 -0.734375 4 -0.832031 4.25 -1.03125 Z M 4.375 -1.03125 "/></g></g><g transform="translate(245.627439, 148.286731)"><g><path d="M 5.765625 -3.765625 L 0.75 -1.5 L 0.75 -2.484375 L 4.484375 -4.09375 L 4.484375 -4.21875 L 0.75 -5.8125 L 0.75 -6.796875 L 5.765625 -4.53125 Z M 5.765625 -3.765625 "/></g></g></g><g clip-path="url(#49237948cb)"><path fill="#ffffff" d="M 40.5 229.582031 L 143.820312 229.582031 L 143.820312 275.902344 L 40.5 275.902344 Z M 40.5 229.582031 " fill-opacity="1" fill-rule="nonzero"/></g><g clip-path="url(#021dc5d0e6)"><path stroke-linecap="butt" transform="matrix(0.75, 0, 0, 0.75, 40.510515, 229.581446)" fill="none" stroke-linejoin="miter" d="M 0.00160565 0.000780913 L 137.64224 0.000780913 L 137.64224 61.750785 L 0.00160565 61.750785 Z M 0.00160565 0.000780913 " stroke="#000000" stroke-width="4" stroke-opacity="1" stroke-miterlimit="4"/></g><g fill="#000000" fill-opacity="1"><g transform="translate(76.628911, 257.331444)"><g><path d="M 5.625 -2.484375 L 5.625 -1.5 L 0.609375 -3.765625 L 0.609375 -4.53125 L 5.625 -6.796875 L 5.625 -5.8125 L 1.90625 -4.21875 L 1.90625 -4.09375 Z M 5.625 -2.484375 "/></g></g><g transform="translate(83.021489, 257.331444)"><g><path d="M 1.4375 0 L 1.4375 -5.6875 L 0.3125 -5.6875 L 0.3125 -6.46875 L 1.4375 -6.46875 C 1.375 -6.75 1.34375 -7.015625 1.34375 -7.265625 C 1.34375 -7.691406 1.429688 -8.046875 1.609375 -8.328125 C 1.785156 -8.617188 2.03125 -8.832031 2.34375 -8.96875 C 2.65625 -9.113281 3.019531 -9.1875 3.4375 -9.1875 C 4.082031 -9.1875 4.578125 -9.046875 4.921875 -8.765625 L 4.546875 -8.09375 L 4.4375 -8.0625 C 4.175781 -8.269531 3.84375 -8.375 3.4375 -8.375 C 3.0625 -8.375 2.773438 -8.273438 2.578125 -8.078125 C 2.390625 -7.878906 2.296875 -7.601562 2.296875 -7.25 C 2.296875 -7.03125 2.328125 -6.769531 2.390625 -6.46875 L 4.453125 -6.46875 L 4.453125 -5.6875 L 2.390625 -5.6875 L 2.390625 0 Z M 1.4375 0 "/></g></g><g transform="translate(87.626957, 257.331444)"><g><path d="M 1.609375 -7.71875 C 1.398438 -7.71875 1.234375 -7.78125 1.109375 -7.90625 C 0.984375 -8.03125 0.921875 -8.191406 0.921875 -8.390625 C 0.921875 -8.578125 0.984375 -8.734375 1.109375 -8.859375 C 1.234375 -8.992188 1.398438 -9.0625 1.609375 -9.0625 C 1.804688 -9.0625 1.96875 -8.992188 2.09375 -8.859375 C 2.226562 -8.734375 2.296875 -8.578125 2.296875 -8.390625 C 2.296875 -8.191406 2.226562 -8.03125 2.09375 -7.90625 C 1.96875 -7.78125 1.804688 -7.71875 1.609375 -7.71875 Z M 1.125 0 L 1.125 -6.46875 L 2.078125 -6.46875 L 2.078125 0 Z M 1.125 0 "/></g></g><g transform="translate(90.832035, 257.331444)"><g><path d="M 2.578125 0.125 C 2.117188 0.125 1.757812 -0.00390625 1.5 -0.265625 C 1.238281 -0.523438 1.109375 -0.914062 1.109375 -1.4375 L 1.109375 -9.0625 L 2.0625 -9.0625 L 2.0625 -1.5 C 2.0625 -1.226562 2.113281 -1.03125 2.21875 -0.90625 C 2.320312 -0.789062 2.484375 -0.734375 2.703125 -0.734375 C 2.828125 -0.734375 2.957031 -0.753906 3.09375 -0.796875 L 3.1875 -0.78125 L 3.296875 -0.03125 C 3.222656 0.0195312 3.117188 0.0546875 2.984375 0.078125 C 2.859375 0.109375 2.722656 0.125 2.578125 0.125 Z M 2.578125 0.125 "/></g></g><g transform="translate(94.34766, 257.331444)"><g><path d="M 6.15625 -3.015625 L 1.71875 -3.015625 C 1.75 -2.222656 1.9375 -1.644531 2.28125 -1.28125 C 2.632812 -0.914062 3.113281 -0.734375 3.71875 -0.734375 C 4.175781 -0.734375 4.546875 -0.8125 4.828125 -0.96875 C 5.109375 -1.132812 5.332031 -1.394531 5.5 -1.75 L 5.625 -1.75 L 6.234375 -1.390625 C 6.046875 -0.921875 5.742188 -0.550781 5.328125 -0.28125 C 4.921875 -0.0078125 4.382812 0.125 3.71875 0.125 C 3.09375 0.125 2.554688 0.00390625 2.109375 -0.234375 C 1.660156 -0.484375 1.3125 -0.859375 1.0625 -1.359375 C 0.820312 -1.859375 0.703125 -2.484375 0.703125 -3.234375 C 0.703125 -3.960938 0.832031 -4.578125 1.09375 -5.078125 C 1.351562 -5.585938 1.703125 -5.96875 2.140625 -6.21875 C 2.585938 -6.46875 3.09375 -6.59375 3.65625 -6.59375 C 4.488281 -6.59375 5.132812 -6.359375 5.59375 -5.890625 C 6.0625 -5.421875 6.300781 -4.726562 6.3125 -3.8125 C 6.3125 -3.445312 6.300781 -3.203125 6.28125 -3.078125 Z M 5.359375 -3.8125 C 5.347656 -4.5 5.195312 -5 4.90625 -5.3125 C 4.613281 -5.625 4.195312 -5.78125 3.65625 -5.78125 C 3.09375 -5.78125 2.648438 -5.617188 2.328125 -5.296875 C 2.003906 -4.984375 1.804688 -4.488281 1.734375 -3.8125 Z M 5.359375 -3.8125 "/></g></g><g transform="translate(101.238284, 257.331444)"><g><path d="M 5.765625 -3.765625 L 0.75 -1.5 L 0.75 -2.484375 L 4.484375 -4.09375 L 4.484375 -4.21875 L 0.75 -5.8125 L 0.75 -6.796875 L 5.765625 -4.53125 Z M 5.765625 -3.765625 "/></g></g></g><g clip-path="url(#a434b04e79)"><path fill="#ffffff" d="M 305.601562 229.582031 L 408.921875 229.582031 L 408.921875 275.902344 L 305.601562 275.902344 Z M 305.601562 229.582031 " fill-opacity="1" fill-rule="nonzero"/></g><g clip-path="url(#ea0616049e)"><path stroke-linecap="butt" transform="matrix(0.75, 0, 0, 0.75, 305.61034, 229.581446)" fill="none" stroke-linejoin="miter" d="M -0.00128683 0.000780913 L 137.644556 0.000780913 L 137.644556 61.750785 L -0.00128683 61.750785 Z M -0.00128683 0.000780913 " stroke="#000000" stroke-width="4" stroke-opacity="1" stroke-miterlimit="4"/></g><g fill="#000000" fill-opacity="1"><g transform="translate(346.099821, 257.331444)"><g><path d="M 5.625 -2.484375 L 5.625 -1.5 L 0.609375 -3.765625 L 0.609375 -4.53125 L 5.625 -6.796875 L 5.625 -5.8125 L 1.90625 -4.21875 L 1.90625 -4.09375 Z M 5.625 -2.484375 "/></g></g><g transform="translate(352.492398, 257.331444)"><g><path d="M 1.578125 0.0625 C 1.359375 0.0625 1.179688 0 1.046875 -0.125 C 0.921875 -0.25 0.859375 -0.414062 0.859375 -0.625 C 0.859375 -0.832031 0.921875 -1 1.046875 -1.125 C 1.179688 -1.257812 1.359375 -1.328125 1.578125 -1.328125 C 1.804688 -1.328125 1.984375 -1.265625 2.109375 -1.140625 C 2.234375 -1.015625 2.296875 -0.847656 2.296875 -0.640625 C 2.296875 -0.429688 2.226562 -0.257812 2.09375 -0.125 C 1.96875 0 1.796875 0.0625 1.578125 0.0625 Z M 1.578125 0.0625 "/></g></g><g transform="translate(355.650601, 257.331444)"><g><path d="M 1.578125 0.0625 C 1.359375 0.0625 1.179688 0 1.046875 -0.125 C 0.921875 -0.25 0.859375 -0.414062 0.859375 -0.625 C 0.859375 -0.832031 0.921875 -1 1.046875 -1.125 C 1.179688 -1.257812 1.359375 -1.328125 1.578125 -1.328125 C 1.804688 -1.328125 1.984375 -1.265625 2.109375 -1.140625 C 2.234375 -1.015625 2.296875 -0.847656 2.296875 -0.640625 C 2.296875 -0.429688 2.226562 -0.257812 2.09375 -0.125 C 1.96875 0 1.796875 0.0625 1.578125 0.0625 Z M 1.578125 0.0625 "/></g></g><g transform="translate(358.808804, 257.331444)"><g><path d="M 1.578125 0.0625 C 1.359375 0.0625 1.179688 0 1.046875 -0.125 C 0.921875 -0.25 0.859375 -0.414062 0.859375 -0.625 C 0.859375 -0.832031 0.921875 -1 1.046875 -1.125 C 1.179688 -1.257812 1.359375 -1.328125 1.578125 -1.328125 C 1.804688 -1.328125 1.984375 -1.265625 2.109375 -1.140625 C 2.234375 -1.015625 2.296875 -0.847656 2.296875 -0.640625 C 2.296875 -0.429688 2.226562 -0.257812 2.09375 -0.125 C 1.96875 0 1.796875 0.0625 1.578125 0.0625 Z M 1.578125 0.0625 "/></g></g><g transform="translate(361.967007, 257.331444)"><g><path d="M 5.765625 -3.765625 L 0.75 -1.5 L 0.75 -2.484375 L 4.484375 -4.09375 L 4.484375 -4.21875 L 0.75 -5.8125 L 0.75 -6.796875 L 5.765625 -4.53125 Z M 5.765625 -3.765625 "/></g></g></g><g clip-path="url(#c2f9fb5a3c)"><path fill="#ffffff" d="M 173.09375 229.582031 L 276.414062 229.582031 L 276.414062 275.902344 L 173.09375 275.902344 Z M 173.09375 229.582031 " fill-opacity="1" fill-rule="nonzero"/></g><g clip-path="url(#2a7eef7758)"><path stroke-linecap="butt" transform="matrix(0.75, 0, 0, 0.75, 173.104746, 229.581446)" fill="none" stroke-linejoin="miter" d="M 0.000964049 0.000780913 L 137.641598 0.000780913 L 137.641598 61.750785 L 0.000964049 61.750785 Z M 0.000964049 0.000780913 " stroke="#000000" stroke-width="4" stroke-opacity="1" stroke-miterlimit="4"/></g><g fill="#000000" fill-opacity="1"><g transform="translate(209.223145, 257.331444)"><g><path d="M 5.625 -2.484375 L 5.625 -1.5 L 0.609375 -3.765625 L 0.609375 -4.53125 L 5.625 -6.796875 L 5.625 -5.8125 L 1.90625 -4.21875 L 1.90625 -4.09375 Z M 5.625 -2.484375 "/></g></g><g transform="translate(215.615722, 257.331444)"><g><path d="M 1.4375 0 L 1.4375 -5.6875 L 0.3125 -5.6875 L 0.3125 -6.46875 L 1.4375 -6.46875 C 1.375 -6.75 1.34375 -7.015625 1.34375 -7.265625 C 1.34375 -7.691406 1.429688 -8.046875 1.609375 -8.328125 C 1.785156 -8.617188 2.03125 -8.832031 2.34375 -8.96875 C 2.65625 -9.113281 3.019531 -9.1875 3.4375 -9.1875 C 4.082031 -9.1875 4.578125 -9.046875 4.921875 -8.765625 L 4.546875 -8.09375 L 4.4375 -8.0625 C 4.175781 -8.269531 3.84375 -8.375 3.4375 -8.375 C 3.0625 -8.375 2.773438 -8.273438 2.578125 -8.078125 C 2.390625 -7.878906 2.296875 -7.601562 2.296875 -7.25 C 2.296875 -7.03125 2.328125 -6.769531 2.390625 -6.46875 L 4.453125 -6.46875 L 4.453125 -5.6875 L 2.390625 -5.6875 L 2.390625 0 Z M 1.4375 0 "/></g></g><g transform="translate(220.221191, 257.331444)"><g><path d="M 1.609375 -7.71875 C 1.398438 -7.71875 1.234375 -7.78125 1.109375 -7.90625 C 0.984375 -8.03125 0.921875 -8.191406 0.921875 -8.390625 C 0.921875 -8.578125 0.984375 -8.734375 1.109375 -8.859375 C 1.234375 -8.992188 1.398438 -9.0625 1.609375 -9.0625 C 1.804688 -9.0625 1.96875 -8.992188 2.09375 -8.859375 C 2.226562 -8.734375 2.296875 -8.578125 2.296875 -8.390625 C 2.296875 -8.191406 2.226562 -8.03125 2.09375 -7.90625 C 1.96875 -7.78125 1.804688 -7.71875 1.609375 -7.71875 Z M 1.125 0 L 1.125 -6.46875 L 2.078125 -6.46875 L 2.078125 0 Z M 1.125 0 "/></g></g><g transform="translate(223.426269, 257.331444)"><g><path d="M 2.578125 0.125 C 2.117188 0.125 1.757812 -0.00390625 1.5 -0.265625 C 1.238281 -0.523438 1.109375 -0.914062 1.109375 -1.4375 L 1.109375 -9.0625 L 2.0625 -9.0625 L 2.0625 -1.5 C 2.0625 -1.226562 2.113281 -1.03125 2.21875 -0.90625 C 2.320312 -0.789062 2.484375 -0.734375 2.703125 -0.734375 C 2.828125 -0.734375 2.957031 -0.753906 3.09375 -0.796875 L 3.1875 -0.78125 L 3.296875 -0.03125 C 3.222656 0.0195312 3.117188 0.0546875 2.984375 0.078125 C 2.859375 0.109375 2.722656 0.125 2.578125 0.125 Z M 2.578125 0.125 "/></g></g><g transform="translate(226.941893, 257.331444)"><g><path d="M 6.15625 -3.015625 L 1.71875 -3.015625 C 1.75 -2.222656 1.9375 -1.644531 2.28125 -1.28125 C 2.632812 -0.914062 3.113281 -0.734375 3.71875 -0.734375 C 4.175781 -0.734375 4.546875 -0.8125 4.828125 -0.96875 C 5.109375 -1.132812 5.332031 -1.394531 5.5 -1.75 L 5.625 -1.75 L 6.234375 -1.390625 C 6.046875 -0.921875 5.742188 -0.550781 5.328125 -0.28125 C 4.921875 -0.0078125 4.382812 0.125 3.71875 0.125 C 3.09375 0.125 2.554688 0.00390625 2.109375 -0.234375 C 1.660156 -0.484375 1.3125 -0.859375 1.0625 -1.359375 C 0.820312 -1.859375 0.703125 -2.484375 0.703125 -3.234375 C 0.703125 -3.960938 0.832031 -4.578125 1.09375 -5.078125 C 1.351562 -5.585938 1.703125 -5.96875 2.140625 -6.21875 C 2.585938 -6.46875 3.09375 -6.59375 3.65625 -6.59375 C 4.488281 -6.59375 5.132812 -6.359375 5.59375 -5.890625 C 6.0625 -5.421875 6.300781 -4.726562 6.3125 -3.8125 C 6.3125 -3.445312 6.300781 -3.203125 6.28125 -3.078125 Z M 5.359375 -3.8125 C 5.347656 -4.5 5.195312 -5 4.90625 -5.3125 C 4.613281 -5.625 4.195312 -5.78125 3.65625 -5.78125 C 3.09375 -5.78125 2.648438 -5.617188 2.328125 -5.296875 C 2.003906 -4.984375 1.804688 -4.488281 1.734375 -3.8125 Z M 5.359375 -3.8125 "/></g></g><g transform="translate(233.832518, 257.331444)"><g><path d="M 5.765625 -3.765625 L 0.75 -1.5 L 0.75 -2.484375 L 4.484375 -4.09375 L 4.484375 -4.21875 L 0.75 -5.8125 L 0.75 -6.796875 L 5.765625 -4.53125 Z M 5.765625 -3.765625 "/></g></g></g><g clip-path="url(#e88d16a944)"><path fill="#ffffff" d="M 628.695312 229.582031 L 732.015625 229.582031 L 732.015625 275.902344 L 628.695312 275.902344 Z M 628.695312 229.582031 " fill-opacity="1" fill-rule="nonzero"/></g><g clip-path="url(#50c1efd6a3)"><path stroke-linecap="butt" transform="matrix(0.75, 0, 0, 0.75, 628.70452, 229.581446)" fill="none" stroke-linejoin="miter" d="M -0.00186037 0.000780913 L 137.643982 0.000780913 L 137.643982 61.750785 L -0.00186037 61.750785 Z M -0.00186037 0.000780913 " stroke="#000000" stroke-width="4" stroke-opacity="1" stroke-miterlimit="4"/></g><g fill="#000000" fill-opacity="1"><g transform="translate(669.19403, 257.331444)"><g><path d="M 5.625 -2.484375 L 5.625 -1.5 L 0.609375 -3.765625 L 0.609375 -4.53125 L 5.625 -6.796875 L 5.625 -5.8125 L 1.90625 -4.21875 L 1.90625 -4.09375 Z M 5.625 -2.484375 "/></g></g><g transform="translate(675.586607, 257.331444)"><g><path d="M 1.578125 0.0625 C 1.359375 0.0625 1.179688 0 1.046875 -0.125 C 0.921875 -0.25 0.859375 -0.414062 0.859375 -0.625 C 0.859375 -0.832031 0.921875 -1 1.046875 -1.125 C 1.179688 -1.257812 1.359375 -1.328125 1.578125 -1.328125 C 1.804688 -1.328125 1.984375 -1.265625 2.109375 -1.140625 C 2.234375 -1.015625 2.296875 -0.847656 2.296875 -0.640625 C 2.296875 -0.429688 2.226562 -0.257812 2.09375 -0.125 C 1.96875 0 1.796875 0.0625 1.578125 0.0625 Z M 1.578125 0.0625 "/></g></g><g transform="translate(678.74481, 257.331444)"><g><path d="M 1.578125 0.0625 C 1.359375 0.0625 1.179688 0 1.046875 -0.125 C 0.921875 -0.25 0.859375 -0.414062 0.859375 -0.625 C 0.859375 -0.832031 0.921875 -1 1.046875 -1.125 C 1.179688 -1.257812 1.359375 -1.328125 1.578125 -1.328125 C 1.804688 -1.328125 1.984375 -1.265625 2.109375 -1.140625 C 2.234375 -1.015625 2.296875 -0.847656 2.296875 -0.640625 C 2.296875 -0.429688 2.226562 -0.257812 2.09375 -0.125 C 1.96875 0 1.796875 0.0625 1.578125 0.0625 Z M 1.578125 0.0625 "/></g></g><g transform="translate(681.903013, 257.331444)"><g><path d="M 1.578125 0.0625 C 1.359375 0.0625 1.179688 0 1.046875 -0.125 C 0.921875 -0.25 0.859375 -0.414062 0.859375 -0.625 C 0.859375 -0.832031 0.921875 -1 1.046875 -1.125 C 1.179688 -1.257812 1.359375 -1.328125 1.578125 -1.328125 C 1.804688 -1.328125 1.984375 -1.265625 2.109375 -1.140625 C 2.234375 -1.015625 2.296875 -0.847656 2.296875 -0.640625 C 2.296875 -0.429688 2.226562 -0.257812 2.09375 -0.125 C 1.96875 0 1.796875 0.0625 1.578125 0.0625 Z M 1.578125 0.0625 "/></g></g><g transform="translate(685.061216, 257.331444)"><g><path d="M 5.765625 -3.765625 L 0.75 -1.5 L 0.75 -2.484375 L 4.484375 -4.09375 L 4.484375 -4.21875 L 0.75 -5.8125 L 0.75 -6.796875 L 5.765625 -4.53125 Z M 5.765625 -3.765625 "/></g></g></g><g clip-path="url(#85aa700ca5)"><path fill="#ffffff" d="M 496.1875 229.582031 L 599.511719 229.582031 L 599.511719 275.902344 L 496.1875 275.902344 Z M 496.1875 229.582031 " fill-opacity="1" fill-rule="nonzero"/></g><g clip-path="url(#5517706e8a)"><path stroke-linecap="butt" transform="matrix(0.75, 0, 0, 0.75, 496.198969, 229.581446)" fill="none" stroke-linejoin="miter" d="M 0.000332902 0.000780913 L 137.646175 0.000780913 L 137.646175 61.750785 L 0.000332902 61.750785 Z M 0.000332902 0.000780913 " stroke="#000000" stroke-width="4" stroke-opacity="1" stroke-miterlimit="4"/></g><g fill="#000000" fill-opacity="1"><g transform="translate(509.278324, 257.331444)"><g><path d="M 5.625 -2.484375 L 5.625 -1.5 L 0.609375 -3.765625 L 0.609375 -4.53125 L 5.625 -6.796875 L 5.625 -5.8125 L 1.90625 -4.21875 L 1.90625 -4.09375 Z M 5.625 -2.484375 "/></g></g><g transform="translate(515.670902, 257.331444)"><g><path d="M 4.734375 0.125 C 3.984375 0.125 3.316406 -0.046875 2.734375 -0.390625 C 2.148438 -0.734375 1.691406 -1.234375 1.359375 -1.890625 C 1.023438 -2.554688 0.859375 -3.351562 0.859375 -4.28125 C 0.859375 -5.207031 1.023438 -6 1.359375 -6.65625 C 1.691406 -7.320312 2.148438 -7.828125 2.734375 -8.171875 C 3.316406 -8.515625 3.984375 -8.6875 4.734375 -8.6875 C 5.535156 -8.6875 6.203125 -8.535156 6.734375 -8.234375 C 7.265625 -7.929688 7.644531 -7.476562 7.875 -6.875 L 7.234375 -6.4375 L 7.09375 -6.4375 C 6.851562 -6.925781 6.546875 -7.269531 6.171875 -7.46875 C 5.796875 -7.675781 5.316406 -7.78125 4.734375 -7.78125 C 4.191406 -7.78125 3.710938 -7.660156 3.296875 -7.421875 C 2.878906 -7.179688 2.546875 -6.800781 2.296875 -6.28125 C 2.054688 -5.757812 1.9375 -5.09375 1.9375 -4.28125 C 1.9375 -3.46875 2.054688 -2.800781 2.296875 -2.28125 C 2.546875 -1.757812 2.878906 -1.378906 3.296875 -1.140625 C 3.710938 -0.898438 4.191406 -0.78125 4.734375 -0.78125 C 5.359375 -0.78125 5.863281 -0.921875 6.25 -1.203125 C 6.644531 -1.484375 6.941406 -1.9375 7.140625 -2.5625 L 7.28125 -2.5625 L 7.953125 -2.234375 C 7.753906 -1.472656 7.378906 -0.890625 6.828125 -0.484375 C 6.273438 -0.078125 5.578125 0.125 4.734375 0.125 Z M 4.734375 0.125 "/></g></g><g transform="translate(524.073245, 257.331444)"><g><path d="M 7.71875 0 L 6.640625 0 L 5.84375 -2.34375 L 2.1875 -2.34375 L 1.390625 0 L 0.34375 0 L 3.328125 -8.5625 L 4.71875 -8.5625 Z M 3.9375 -7.53125 L 2.46875 -3.1875 L 5.5625 -3.1875 L 4.09375 -7.53125 Z M 3.9375 -7.53125 "/></g></g><g transform="translate(532.124026, 257.331444)"><g><path d="M 6.6875 -8.5625 L 6.6875 -7.71875 L 4 -7.71875 L 4 0 L 3 0 L 3 -7.71875 L 0.3125 -7.71875 L 0.3125 -8.5625 Z M 6.6875 -8.5625 "/></g></g><g transform="translate(539.120119, 257.331444)"><g><path d="M 2.296875 -4.03125 L 2.296875 -0.828125 L 6.671875 -0.828125 L 6.671875 0 L 1.296875 0 L 1.296875 -8.5625 L 6.578125 -8.5625 L 6.578125 -7.734375 L 2.296875 -7.734375 L 2.296875 -4.875 L 6.078125 -4.875 L 6.078125 -4.03125 Z M 2.296875 -4.03125 "/></g></g><g transform="translate(546.356446, 257.331444)"><g><path d="M 4.5 0.125 C 3.78125 0.125 3.144531 -0.0351562 2.59375 -0.359375 C 2.050781 -0.691406 1.625 -1.1875 1.3125 -1.84375 C 1.007812 -2.507812 0.859375 -3.320312 0.859375 -4.28125 C 0.859375 -5.238281 1.019531 -6.046875 1.34375 -6.703125 C 1.675781 -7.367188 2.132812 -7.863281 2.71875 -8.1875 C 3.3125 -8.519531 3.988281 -8.6875 4.75 -8.6875 C 5.570312 -8.6875 6.242188 -8.539062 6.765625 -8.25 C 7.296875 -7.957031 7.671875 -7.515625 7.890625 -6.921875 L 7.234375 -6.546875 L 7.09375 -6.546875 C 6.863281 -6.984375 6.5625 -7.296875 6.1875 -7.484375 C 5.8125 -7.679688 5.332031 -7.78125 4.75 -7.78125 C 2.875 -7.78125 1.9375 -6.613281 1.9375 -4.28125 C 1.9375 -3.070312 2.171875 -2.1875 2.640625 -1.625 C 3.117188 -1.0625 3.78125 -0.78125 4.625 -0.78125 C 5.40625 -0.78125 5.988281 -0.957031 6.375 -1.3125 C 6.769531 -1.675781 6.96875 -2.238281 6.96875 -3 L 6.96875 -3.75 L 4.53125 -3.75 L 4.53125 -4.5625 L 7.953125 -4.5625 L 7.953125 0 L 7.015625 0 L 7.015625 -1.15625 L 6.890625 -1.171875 C 6.660156 -0.734375 6.34375 -0.40625 5.9375 -0.1875 C 5.539062 0.0195312 5.0625 0.125 4.5 0.125 Z M 4.5 0.125 "/></g></g><g transform="translate(555.262696, 257.331444)"><g><path d="M 4.703125 0.125 C 3.960938 0.125 3.300781 -0.0351562 2.71875 -0.359375 C 2.144531 -0.679688 1.691406 -1.171875 1.359375 -1.828125 C 1.023438 -2.484375 0.859375 -3.300781 0.859375 -4.28125 C 0.859375 -5.257812 1.023438 -6.078125 1.359375 -6.734375 C 1.691406 -7.398438 2.144531 -7.890625 2.71875 -8.203125 C 3.300781 -8.523438 3.960938 -8.6875 4.703125 -8.6875 C 5.441406 -8.6875 6.097656 -8.523438 6.671875 -8.203125 C 7.253906 -7.890625 7.710938 -7.398438 8.046875 -6.734375 C 8.378906 -6.078125 8.546875 -5.257812 8.546875 -4.28125 C 8.546875 -3.300781 8.378906 -2.484375 8.046875 -1.828125 C 7.710938 -1.171875 7.253906 -0.679688 6.671875 -0.359375 C 6.097656 -0.0351562 5.441406 0.125 4.703125 0.125 Z M 4.703125 -0.8125 C 5.585938 -0.8125 6.269531 -1.085938 6.75 -1.640625 C 7.226562 -2.203125 7.46875 -3.082031 7.46875 -4.28125 C 7.46875 -5.488281 7.226562 -6.367188 6.75 -6.921875 C 6.269531 -7.484375 5.585938 -7.765625 4.703125 -7.765625 C 2.859375 -7.765625 1.9375 -6.601562 1.9375 -4.28125 C 1.9375 -1.96875 2.859375 -0.8125 4.703125 -0.8125 Z M 4.703125 -0.8125 "/></g></g><g transform="translate(564.661133, 257.331444)"><g><path d="M 1.296875 0 L 1.296875 -8.5625 L 4.40625 -8.5625 C 4.976562 -8.5625 5.457031 -8.46875 5.84375 -8.28125 C 6.238281 -8.09375 6.535156 -7.828125 6.734375 -7.484375 C 6.929688 -7.140625 7.03125 -6.726562 7.03125 -6.25 C 7.03125 -5.71875 6.894531 -5.28125 6.625 -4.9375 C 6.363281 -4.59375 5.953125 -4.332031 5.390625 -4.15625 L 5.390625 -4.03125 C 5.660156 -3.925781 5.882812 -3.753906 6.0625 -3.515625 C 6.238281 -3.285156 6.398438 -2.9375 6.546875 -2.46875 L 7.34375 0 L 6.3125 0 L 5.453125 -2.625 C 5.347656 -2.925781 5.226562 -3.164062 5.09375 -3.34375 C 4.96875 -3.519531 4.800781 -3.644531 4.59375 -3.71875 C 4.394531 -3.800781 4.140625 -3.84375 3.828125 -3.84375 L 2.296875 -3.84375 L 2.296875 0 Z M 4.390625 -4.703125 C 4.921875 -4.703125 5.316406 -4.820312 5.578125 -5.0625 C 5.835938 -5.3125 5.96875 -5.691406 5.96875 -6.203125 C 5.96875 -6.710938 5.835938 -7.09375 5.578125 -7.34375 C 5.316406 -7.59375 4.921875 -7.71875 4.390625 -7.71875 L 2.296875 -7.71875 L 2.296875 -4.703125 Z M 4.390625 -4.703125 "/></g></g><g transform="translate(572.594726, 257.331444)"><g><path d="M 4.1875 0 L 3.1875 0 L 3.1875 -3.359375 L 0.21875 -8.5625 L 1.328125 -8.5625 L 3.640625 -4.546875 L 3.78125 -4.546875 L 6.078125 -8.5625 L 7.15625 -8.5625 L 4.1875 -3.359375 Z M 4.1875 0 "/></g></g><g transform="translate(579.95996, 257.331444)"><g><path d="M 5.765625 -3.765625 L 0.75 -1.5 L 0.75 -2.484375 L 4.484375 -4.09375 L 4.484375 -4.21875 L 0.75 -5.8125 L 0.75 -6.796875 L 5.765625 -4.53125 Z M 5.765625 -3.765625 "/></g></g></g><g clip-path="url(#1f9021cbbc)"><path fill="#ffffff" d="M 562.441406 338.902344 L 665.761719 338.902344 L 665.761719 385.226562 L 562.441406 385.226562 Z M 562.441406 338.902344 " fill-opacity="1" fill-rule="nonzero"/></g><g clip-path="url(#f4cf14a65c)"><path stroke-linecap="butt" transform="matrix(0.75, 0, 0, 0.75, 562.451757, 338.904119)" fill="none" stroke-linejoin="miter" d="M 0.00182443 -0.00236715 L 137.642459 -0.00236715 L 137.642459 61.747637 L 0.00182443 61.747637 Z M 0.00182443 -0.00236715 " stroke="#000000" stroke-width="4" stroke-opacity="1" stroke-miterlimit="4"/></g><g fill="#000000" fill-opacity="1"><g transform="translate(602.941266, 366.654117)"><g><path d="M 5.625 -2.484375 L 5.625 -1.5 L 0.609375 -3.765625 L 0.609375 -4.53125 L 5.625 -6.796875 L 5.625 -5.8125 L 1.90625 -4.21875 L 1.90625 -4.09375 Z M 5.625 -2.484375 "/></g></g><g transform="translate(609.333844, 366.654117)"><g><path d="M 1.578125 0.0625 C 1.359375 0.0625 1.179688 0 1.046875 -0.125 C 0.921875 -0.25 0.859375 -0.414062 0.859375 -0.625 C 0.859375 -0.832031 0.921875 -1 1.046875 -1.125 C 1.179688 -1.257812 1.359375 -1.328125 1.578125 -1.328125 C 1.804688 -1.328125 1.984375 -1.265625 2.109375 -1.140625 C 2.234375 -1.015625 2.296875 -0.847656 2.296875 -0.640625 C 2.296875 -0.429688 2.226562 -0.257812 2.09375 -0.125 C 1.96875 0 1.796875 0.0625 1.578125 0.0625 Z M 1.578125 0.0625 "/></g></g><g transform="translate(612.492047, 366.654117)"><g><path d="M 1.578125 0.0625 C 1.359375 0.0625 1.179688 0 1.046875 -0.125 C 0.921875 -0.25 0.859375 -0.414062 0.859375 -0.625 C 0.859375 -0.832031 0.921875 -1 1.046875 -1.125 C 1.179688 -1.257812 1.359375 -1.328125 1.578125 -1.328125 C 1.804688 -1.328125 1.984375 -1.265625 2.109375 -1.140625 C 2.234375 -1.015625 2.296875 -0.847656 2.296875 -0.640625 C 2.296875 -0.429688 2.226562 -0.257812 2.09375 -0.125 C 1.96875 0 1.796875 0.0625 1.578125 0.0625 Z M 1.578125 0.0625 "/></g></g><g transform="translate(615.650249, 366.654117)"><g><path d="M 1.578125 0.0625 C 1.359375 0.0625 1.179688 0 1.046875 -0.125 C 0.921875 -0.25 0.859375 -0.414062 0.859375 -0.625 C 0.859375 -0.832031 0.921875 -1 1.046875 -1.125 C 1.179688 -1.257812 1.359375 -1.328125 1.578125 -1.328125 C 1.804688 -1.328125 1.984375 -1.265625 2.109375 -1.140625 C 2.234375 -1.015625 2.296875 -0.847656 2.296875 -0.640625 C 2.296875 -0.429688 2.226562 -0.257812 2.09375 -0.125 C 1.96875 0 1.796875 0.0625 1.578125 0.0625 Z M 1.578125 0.0625 "/></g></g><g transform="translate(618.808452, 366.654117)"><g><path d="M 5.765625 -3.765625 L 0.75 -1.5 L 0.75 -2.484375 L 4.484375 -4.09375 L 4.484375 -4.21875 L 0.75 -5.8125 L 0.75 -6.796875 L 5.765625 -4.53125 Z M 5.765625 -3.765625 "/></g></g></g><g clip-path="url(#7656ca9726)"><path fill="#ffffff" d="M 429.9375 338.902344 L 533.257812 338.902344 L 533.257812 385.226562 L 429.9375 385.226562 Z M 429.9375 338.902344 " fill-opacity="1" fill-rule="nonzero"/></g><g clip-path="url(#874278983b)"><path stroke-linecap="butt" transform="matrix(0.75, 0, 0, 0.75, 429.946205, 338.904119)" fill="none" stroke-linejoin="miter" d="M -0.00119063 -0.00236715 L 137.644652 -0.00236715 L 137.644652 61.747637 L -0.00119063 61.747637 Z M -0.00119063 -0.00236715 " stroke="#000000" stroke-width="4" stroke-opacity="1" stroke-miterlimit="4"/></g><g fill="#000000" fill-opacity="1"><g transform="translate(443.92788, 366.654117)"><g><path d="M 5.625 -2.484375 L 5.625 -1.5 L 0.609375 -3.765625 L 0.609375 -4.53125 L 5.625 -6.796875 L 5.625 -5.8125 L 1.90625 -4.21875 L 1.90625 -4.09375 Z M 5.625 -2.484375 "/></g></g><g transform="translate(450.320458, 366.654117)"><g><path d="M 4.359375 -8.5625 C 4.953125 -8.5625 5.457031 -8.457031 5.875 -8.25 C 6.300781 -8.039062 6.625 -7.738281 6.84375 -7.34375 C 7.0625 -6.945312 7.171875 -6.484375 7.171875 -5.953125 C 7.171875 -5.421875 7.0625 -4.957031 6.84375 -4.5625 C 6.625 -4.175781 6.300781 -3.878906 5.875 -3.671875 C 5.457031 -3.460938 4.953125 -3.359375 4.359375 -3.359375 L 2.296875 -3.359375 L 2.296875 0 L 1.296875 0 L 1.296875 -8.5625 Z M 4.328125 -4.21875 C 5.523438 -4.21875 6.125 -4.796875 6.125 -5.953125 C 6.125 -7.128906 5.523438 -7.71875 4.328125 -7.71875 L 2.296875 -7.71875 L 2.296875 -4.21875 Z M 4.328125 -4.21875 "/></g></g><g transform="translate(458.131004, 366.654117)"><g><path d="M 1.296875 0 L 1.296875 -8.5625 L 4.40625 -8.5625 C 4.976562 -8.5625 5.457031 -8.46875 5.84375 -8.28125 C 6.238281 -8.09375 6.535156 -7.828125 6.734375 -7.484375 C 6.929688 -7.140625 7.03125 -6.726562 7.03125 -6.25 C 7.03125 -5.71875 6.894531 -5.28125 6.625 -4.9375 C 6.363281 -4.59375 5.953125 -4.332031 5.390625 -4.15625 L 5.390625 -4.03125 C 5.660156 -3.925781 5.882812 -3.753906 6.0625 -3.515625 C 6.238281 -3.285156 6.398438 -2.9375 6.546875 -2.46875 L 7.34375 0 L 6.3125 0 L 5.453125 -2.625 C 5.347656 -2.925781 5.226562 -3.164062 5.09375 -3.34375 C 4.96875 -3.519531 4.800781 -3.644531 4.59375 -3.71875 C 4.394531 -3.800781 4.140625 -3.84375 3.828125 -3.84375 L 2.296875 -3.84375 L 2.296875 0 Z M 4.390625 -4.703125 C 4.921875 -4.703125 5.316406 -4.820312 5.578125 -5.0625 C 5.835938 -5.3125 5.96875 -5.691406 5.96875 -6.203125 C 5.96875 -6.710938 5.835938 -7.09375 5.578125 -7.34375 C 5.316406 -7.59375 4.921875 -7.71875 4.390625 -7.71875 L 2.296875 -7.71875 L 2.296875 -4.703125 Z M 4.390625 -4.703125 "/></g></g><g transform="translate(466.064597, 366.654117)"><g><path d="M 4.703125 0.125 C 3.960938 0.125 3.300781 -0.0351562 2.71875 -0.359375 C 2.144531 -0.679688 1.691406 -1.171875 1.359375 -1.828125 C 1.023438 -2.484375 0.859375 -3.300781 0.859375 -4.28125 C 0.859375 -5.257812 1.023438 -6.078125 1.359375 -6.734375 C 1.691406 -7.398438 2.144531 -7.890625 2.71875 -8.203125 C 3.300781 -8.523438 3.960938 -8.6875 4.703125 -8.6875 C 5.441406 -8.6875 6.097656 -8.523438 6.671875 -8.203125 C 7.253906 -7.890625 7.710938 -7.398438 8.046875 -6.734375 C 8.378906 -6.078125 8.546875 -5.257812 8.546875 -4.28125 C 8.546875 -3.300781 8.378906 -2.484375 8.046875 -1.828125 C 7.710938 -1.171875 7.253906 -0.679688 6.671875 -0.359375 C 6.097656 -0.0351562 5.441406 0.125 4.703125 0.125 Z M 4.703125 -0.8125 C 5.585938 -0.8125 6.269531 -1.085938 6.75 -1.640625 C 7.226562 -2.203125 7.46875 -3.082031 7.46875 -4.28125 C 7.46875 -5.488281 7.226562 -6.367188 6.75 -6.921875 C 6.269531 -7.484375 5.585938 -7.765625 4.703125 -7.765625 C 2.859375 -7.765625 1.9375 -6.601562 1.9375 -4.28125 C 1.9375 -1.96875 2.859375 -0.8125 4.703125 -0.8125 Z M 4.703125 -0.8125 "/></g></g><g transform="translate(475.463034, 366.654117)"><g><path d="M 4.359375 -8.5625 C 4.953125 -8.5625 5.457031 -8.457031 5.875 -8.25 C 6.300781 -8.039062 6.625 -7.738281 6.84375 -7.34375 C 7.0625 -6.945312 7.171875 -6.484375 7.171875 -5.953125 C 7.171875 -5.421875 7.0625 -4.957031 6.84375 -4.5625 C 6.625 -4.175781 6.300781 -3.878906 5.875 -3.671875 C 5.457031 -3.460938 4.953125 -3.359375 4.359375 -3.359375 L 2.296875 -3.359375 L 2.296875 0 L 1.296875 0 L 1.296875 -8.5625 Z M 4.328125 -4.21875 C 5.523438 -4.21875 6.125 -4.796875 6.125 -5.953125 C 6.125 -7.128906 5.523438 -7.71875 4.328125 -7.71875 L 2.296875 -7.71875 L 2.296875 -4.21875 Z M 4.328125 -4.21875 "/></g></g><g transform="translate(483.273581, 366.654117)"><g><path d="M 2.296875 -4.03125 L 2.296875 -0.828125 L 6.671875 -0.828125 L 6.671875 0 L 1.296875 0 L 1.296875 -8.5625 L 6.578125 -8.5625 L 6.578125 -7.734375 L 2.296875 -7.734375 L 2.296875 -4.875 L 6.078125 -4.875 L 6.078125 -4.03125 Z M 2.296875 -4.03125 "/></g></g><g transform="translate(490.509908, 366.654117)"><g><path d="M 1.296875 0 L 1.296875 -8.5625 L 4.40625 -8.5625 C 4.976562 -8.5625 5.457031 -8.46875 5.84375 -8.28125 C 6.238281 -8.09375 6.535156 -7.828125 6.734375 -7.484375 C 6.929688 -7.140625 7.03125 -6.726562 7.03125 -6.25 C 7.03125 -5.71875 6.894531 -5.28125 6.625 -4.9375 C 6.363281 -4.59375 5.953125 -4.332031 5.390625 -4.15625 L 5.390625 -4.03125 C 5.660156 -3.925781 5.882812 -3.753906 6.0625 -3.515625 C 6.238281 -3.285156 6.398438 -2.9375 6.546875 -2.46875 L 7.34375 0 L 6.3125 0 L 5.453125 -2.625 C 5.347656 -2.925781 5.226562 -3.164062 5.09375 -3.34375 C 4.96875 -3.519531 4.800781 -3.644531 4.59375 -3.71875 C 4.394531 -3.800781 4.140625 -3.84375 3.828125 -3.84375 L 2.296875 -3.84375 L 2.296875 0 Z M 4.390625 -4.703125 C 4.921875 -4.703125 5.316406 -4.820312 5.578125 -5.0625 C 5.835938 -5.3125 5.96875 -5.691406 5.96875 -6.203125 C 5.96875 -6.710938 5.835938 -7.09375 5.578125 -7.34375 C 5.316406 -7.59375 4.921875 -7.71875 4.390625 -7.71875 L 2.296875 -7.71875 L 2.296875 -4.703125 Z M 4.390625 -4.703125 "/></g></g><g transform="translate(498.443501, 366.654117)"><g><path d="M 6.6875 -8.5625 L 6.6875 -7.71875 L 4 -7.71875 L 4 0 L 3 0 L 3 -7.71875 L 0.3125 -7.71875 L 0.3125 -8.5625 Z M 6.6875 -8.5625 "/></g></g><g transform="translate(505.439595, 366.654117)"><g><path d="M 4.1875 0 L 3.1875 0 L 3.1875 -3.359375 L 0.21875 -8.5625 L 1.328125 -8.5625 L 3.640625 -4.546875 L 3.78125 -4.546875 L 6.078125 -8.5625 L 7.15625 -8.5625 L 4.1875 -3.359375 Z M 4.1875 0 "/></g></g><g transform="translate(512.804829, 366.654117)"><g><path d="M 5.765625 -3.765625 L 0.75 -1.5 L 0.75 -2.484375 L 4.484375 -4.09375 L 4.484375 -4.21875 L 0.75 -5.8125 L 0.75 -6.796875 L 5.765625 -4.53125 Z M 5.765625 -3.765625 "/></g></g></g><path stroke-linecap="butt" transform="matrix(0.75, 0, 0, 0.75, 223.972042, 66.09584)" fill="none" stroke-linejoin="miter" d="M 256.20917 0.00242218 L 256.20917 36.294091 L 1.00082 36.294091 L 1.00082 71.58576 " stroke="#000000" stroke-width="2" stroke-opacity="1" stroke-miterlimit="4"/><path stroke-linecap="round" transform="matrix(0.75, 0, 0, 0.75, 223.972042, 66.09584)" fill="none" stroke-linejoin="round" d="M 4.00082 67.58576 L 1.00082 71.58576 L -1.999181 67.58576 " stroke="#000000" stroke-width="2" stroke-opacity="1" stroke-miterlimit="4"/><path stroke-linecap="butt" transform="matrix(0.75, 0, 0, 0.75, 415.37775, 66.09584)" fill="none" stroke-linejoin="miter" d="M 1.001541 0.00242218 L 1.001541 36.294091 L 264.616142 36.294091 L 264.616142 71.58576 " stroke="#000000" stroke-width="2" stroke-opacity="1" stroke-miterlimit="4"/><path stroke-linecap="round" transform="matrix(0.75, 0, 0, 0.75, 415.37775, 66.09584)" fill="none" stroke-linejoin="round" d="M 267.616142 67.58576 L 264.616142 71.58576 L 261.616142 67.58576 " stroke="#000000" stroke-width="2" stroke-opacity="1" stroke-miterlimit="4"/><path stroke-linecap="butt" transform="matrix(0.75, 0, 0, 0.75, 91.377798, 166.859418)" fill="none" stroke-linejoin="miter" d="M 177.793156 -0.0000569701 L 177.793156 39.687446 L 1.001477 39.687446 L 1.001477 82.630157 " stroke="#000000" stroke-width="2" stroke-opacity="1" stroke-miterlimit="4"/><path stroke-linecap="round" transform="matrix(0.75, 0, 0, 0.75, 91.377798, 166.859418)" fill="none" stroke-linejoin="round" d="M 4.001477 78.630157 L 1.001477 82.630157 L -1.998523 78.630157 " stroke="#000000" stroke-width="2" stroke-opacity="1" stroke-miterlimit="4"/><path stroke-linecap="butt" transform="matrix(0.75, 0, 0, 0.75, 223.972042, 166.859418)" fill="none" stroke-linejoin="miter" d="M 1.00082 -0.0000569701 L 1.00082 39.848904 L 177.672706 39.848904 L 177.672706 82.630157 " stroke="#000000" stroke-width="2" stroke-opacity="1" stroke-miterlimit="4"/><path stroke-linecap="round" transform="matrix(0.75, 0, 0, 0.75, 223.972042, 166.859418)" fill="none" stroke-linejoin="round" d="M 180.672707 78.630157 L 177.672706 82.630157 L 174.672706 78.630157 " stroke="#000000" stroke-width="2" stroke-opacity="1" stroke-miterlimit="4"/><path stroke-linecap="butt" transform="matrix(0.75, 0, 0, 0.75, 223.972042, 166.859418)" fill="none" stroke-linejoin="miter" d="M 1.00082 -0.0000569701 L 1.00082 82.630157 " stroke="#000000" stroke-width="2" stroke-opacity="1" stroke-miterlimit="4"/><path stroke-linecap="round" transform="matrix(0.75, 0, 0, 0.75, 223.972042, 166.859418)" fill="none" stroke-linejoin="round" d="M 4.00082 78.630157 L 1.00082 82.630157 L -1.999181 78.630157 " stroke="#000000" stroke-width="2" stroke-opacity="1" stroke-miterlimit="4"/><path stroke-linecap="butt" transform="matrix(0.75, 0, 0, 0.75, 547.06627, 166.859418)" fill="none" stroke-linejoin="miter" d="M 89.031438 -0.0000569701 L 89.031438 33.416612 L 1.000182 33.416612 L 1.000182 82.630157 " stroke="#000000" stroke-width="2" stroke-opacity="1" stroke-miterlimit="4"/><path stroke-linecap="round" transform="matrix(0.75, 0, 0, 0.75, 547.06627, 166.859418)" fill="none" stroke-linejoin="round" d="M 4.000182 78.630157 L 1.000182 82.630157 L -1.999818 78.630157 " stroke="#000000" stroke-width="2" stroke-opacity="1" stroke-miterlimit="4"/><path stroke-linecap="butt" transform="matrix(0.75, 0, 0, 0.75, 613.090217, 166.859418)" fill="none" stroke-linejoin="miter" d="M 0.999502 -0.0000569701 L 0.999502 33.35932 L 89.640133 33.35932 L 89.640133 82.630157 " stroke="#000000" stroke-width="2" stroke-opacity="1" stroke-miterlimit="4"/><path stroke-linecap="round" transform="matrix(0.75, 0, 0, 0.75, 613.090217, 166.859418)" fill="none" stroke-linejoin="round" d="M 92.640133 78.630157 L 89.640133 82.630157 L 86.640133 78.630157 " stroke="#000000" stroke-width="2" stroke-opacity="1" stroke-miterlimit="4"/><path stroke-linecap="butt" transform="matrix(0.75, 0, 0, 0.75, 480.813458, 275.904123)" fill="none" stroke-linejoin="miter" d="M 89.33727 -0.00237272 L 89.33727 44.580964 L 0.998723 44.580964 L 0.998723 82.997633 " stroke="#000000" stroke-width="2" stroke-opacity="1" stroke-miterlimit="4"/><path stroke-linecap="round" transform="matrix(0.75, 0, 0, 0.75, 480.813458, 275.904123)" fill="none" stroke-linejoin="round" d="M 3.998723 78.997633 L 0.998723 82.997633 L -2.001278 78.997633 " stroke="#000000" stroke-width="2" stroke-opacity="1" stroke-miterlimit="4"/><path stroke-linecap="butt" transform="matrix(0.75, 0, 0, 0.75, 547.06627, 275.904123)" fill="none" stroke-linejoin="miter" d="M 1.000182 -0.00237272 L 1.000182 44.549714 L 89.33873 44.549714 L 89.33873 82.997633 " stroke="#000000" stroke-width="2" stroke-opacity="1" stroke-miterlimit="4"/><path stroke-linecap="round" transform="matrix(0.75, 0, 0, 0.75, 547.06627, 275.904123)" fill="none" stroke-linejoin="round" d="M 92.33873 78.997633 L 89.33873 82.997633 L 86.338729 78.997633 " stroke="#000000" stroke-width="2" stroke-opacity="1" stroke-miterlimit="4"/></svg>